<mxfile host="app.diagrams.net" agent="Mozilla/5.0 (Windows NT 10.0; Win64; x64) AppleWebKit/537.36 (KHTML, like Gecko) Chrome/130.0.0.0 Safari/537.36" version="24.8.1">
  <diagram name="Page-1" id="v2Eu8WnD-PRwmS0Yo7Vs">
    <mxGraphModel dx="1195" dy="615" grid="1" gridSize="10" guides="1" tooltips="1" connect="1" arrows="1" fold="1" page="1" pageScale="1" pageWidth="850" pageHeight="1100" math="0" shadow="0">
      <root>
        <mxCell id="0" />
        <mxCell id="1" parent="0" />
        <mxCell id="06E3xFHW_3glh8oqLaG1-7" value="AWS" style="swimlane;whiteSpace=wrap;html=1;" vertex="1" parent="1">
          <mxGeometry x="430" y="180" width="830" height="570" as="geometry" />
        </mxCell>
        <mxCell id="06E3xFHW_3glh8oqLaG1-8" value="Aurora for MySQL" style="shape=cylinder3;whiteSpace=wrap;html=1;boundedLbl=1;backgroundOutline=1;size=15;" vertex="1" parent="06E3xFHW_3glh8oqLaG1-7">
          <mxGeometry x="410" y="330" width="60" height="80" as="geometry" />
        </mxCell>
        <mxCell id="06E3xFHW_3glh8oqLaG1-33" value="AWS Lambda/Scheduler (Daily)" style="swimlane;whiteSpace=wrap;html=1;" vertex="1" parent="06E3xFHW_3glh8oqLaG1-7">
          <mxGeometry x="350.03" y="70" width="270" height="230" as="geometry" />
        </mxCell>
        <mxCell id="06E3xFHW_3glh8oqLaG1-34" value="" style="group" vertex="1" connectable="0" parent="06E3xFHW_3glh8oqLaG1-33">
          <mxGeometry x="20" y="50" width="220" height="97.69" as="geometry" />
        </mxCell>
        <mxCell id="06E3xFHW_3glh8oqLaG1-35" value="BonusLink.Wtr3.JobOLTPArchive" style="text;whiteSpace=wrap;" vertex="1" parent="06E3xFHW_3glh8oqLaG1-34">
          <mxGeometry x="26.12" width="193.88" height="24.62" as="geometry" />
        </mxCell>
        <mxCell id="06E3xFHW_3glh8oqLaG1-37" value="" style="aspect=fixed;sketch=0;html=1;dashed=0;whitespace=wrap;verticalLabelPosition=bottom;verticalAlign=top;fillColor=#2875E2;strokeColor=#ffffff;points=[[0.005,0.63,0],[0.1,0.2,0],[0.9,0.2,0],[0.5,0,0],[0.995,0.63,0],[0.72,0.99,0],[0.5,1,0],[0.28,0.99,0]];shape=mxgraph.kubernetes.icon2;kubernetesLabel=1;prIcon=job" vertex="1" parent="06E3xFHW_3glh8oqLaG1-34">
          <mxGeometry y="36.16" width="26.44" height="25.38" as="geometry" />
        </mxCell>
        <mxCell id="06E3xFHW_3glh8oqLaG1-41" value="BonusLink.Wtr3.JobOLTPDTS" style="text;whiteSpace=wrap;" vertex="1" parent="06E3xFHW_3glh8oqLaG1-34">
          <mxGeometry x="26.44" y="36.16" width="193.56" height="24.62" as="geometry" />
        </mxCell>
        <mxCell id="06E3xFHW_3glh8oqLaG1-40" value="BonusLink.Wtr3.JobOLTPTerminal  " style="text;whiteSpace=wrap;" vertex="1" parent="06E3xFHW_3glh8oqLaG1-34">
          <mxGeometry x="26.12" y="73.07" width="193.88" height="24.62" as="geometry" />
        </mxCell>
        <mxCell id="06E3xFHW_3glh8oqLaG1-38" value="" style="aspect=fixed;sketch=0;html=1;dashed=0;whitespace=wrap;verticalLabelPosition=bottom;verticalAlign=top;fillColor=#2875E2;strokeColor=#ffffff;points=[[0.005,0.63,0],[0.1,0.2,0],[0.9,0.2,0],[0.5,0,0],[0.995,0.63,0],[0.72,0.99,0],[0.5,1,0],[0.28,0.99,0]];shape=mxgraph.kubernetes.icon2;kubernetesLabel=1;prIcon=job" vertex="1" parent="06E3xFHW_3glh8oqLaG1-34">
          <mxGeometry x="0.8000000000000682" y="73.07999999999998" width="25.64" height="24.61" as="geometry" />
        </mxCell>
        <mxCell id="06E3xFHW_3glh8oqLaG1-42" value="BonusLink.Wtr3.JobOLTPResync" style="text;whiteSpace=wrap;" vertex="1" parent="06E3xFHW_3glh8oqLaG1-33">
          <mxGeometry x="47.24" y="158.85" width="192.76" height="24.62" as="geometry" />
        </mxCell>
        <mxCell id="06E3xFHW_3glh8oqLaG1-39" value="" style="aspect=fixed;sketch=0;html=1;dashed=0;whitespace=wrap;verticalLabelPosition=bottom;verticalAlign=top;fillColor=#2875E2;strokeColor=#ffffff;points=[[0.005,0.63,0],[0.1,0.2,0],[0.9,0.2,0],[0.5,0,0],[0.995,0.63,0],[0.72,0.99,0],[0.5,1,0],[0.28,0.99,0]];shape=mxgraph.kubernetes.icon2;kubernetesLabel=1;prIcon=job" vertex="1" parent="06E3xFHW_3glh8oqLaG1-33">
          <mxGeometry x="20.770000000000003" y="156.14999999999998" width="28.46" height="27.32" as="geometry" />
        </mxCell>
        <mxCell id="06E3xFHW_3glh8oqLaG1-36" value="" style="aspect=fixed;sketch=0;html=1;dashed=0;whitespace=wrap;verticalLabelPosition=bottom;verticalAlign=top;fillColor=#2875E2;strokeColor=#ffffff;points=[[0.005,0.63,0],[0.1,0.2,0],[0.9,0.2,0],[0.5,0,0],[0.995,0.63,0],[0.72,0.99,0],[0.5,1,0],[0.28,0.99,0]];shape=mxgraph.kubernetes.icon2;kubernetesLabel=1;prIcon=job" vertex="1" parent="06E3xFHW_3glh8oqLaG1-33">
          <mxGeometry x="20.77" y="50" width="25.65" height="24.62" as="geometry" />
        </mxCell>
        <mxCell id="06E3xFHW_3glh8oqLaG1-43" value="Aurora for MSSQL" style="shape=cylinder3;whiteSpace=wrap;html=1;boundedLbl=1;backgroundOutline=1;size=15;" vertex="1" parent="06E3xFHW_3glh8oqLaG1-7">
          <mxGeometry x="420" y="470" width="60" height="80" as="geometry" />
        </mxCell>
        <mxCell id="06E3xFHW_3glh8oqLaG1-50" style="edgeStyle=orthogonalEdgeStyle;rounded=0;orthogonalLoop=1;jettySize=auto;html=1;exitX=0.5;exitY=1;exitDx=0;exitDy=0;entryX=0.5;entryY=0;entryDx=0;entryDy=0;" edge="1" parent="06E3xFHW_3glh8oqLaG1-7" source="06E3xFHW_3glh8oqLaG1-46" target="06E3xFHW_3glh8oqLaG1-49">
          <mxGeometry relative="1" as="geometry" />
        </mxCell>
        <mxCell id="06E3xFHW_3glh8oqLaG1-46" value="OLTP Cloud" style="rounded=0;whiteSpace=wrap;html=1;" vertex="1" parent="06E3xFHW_3glh8oqLaG1-7">
          <mxGeometry x="70.03" y="50" width="120" height="60" as="geometry" />
        </mxCell>
        <mxCell id="06E3xFHW_3glh8oqLaG1-49" value="OLTP Host" style="rounded=0;whiteSpace=wrap;html=1;" vertex="1" parent="06E3xFHW_3glh8oqLaG1-7">
          <mxGeometry x="70.03" y="250" width="120" height="60" as="geometry" />
        </mxCell>
        <mxCell id="06E3xFHW_3glh8oqLaG1-56" style="edgeStyle=orthogonalEdgeStyle;rounded=0;orthogonalLoop=1;jettySize=auto;html=1;exitX=0;exitY=0.5;exitDx=0;exitDy=0;entryX=0.5;entryY=1;entryDx=0;entryDy=0;entryPerimeter=0;" edge="1" parent="06E3xFHW_3glh8oqLaG1-7" source="06E3xFHW_3glh8oqLaG1-46" target="06E3xFHW_3glh8oqLaG1-8">
          <mxGeometry relative="1" as="geometry">
            <Array as="points">
              <mxPoint x="50" y="80" />
              <mxPoint x="50" y="430" />
              <mxPoint x="440" y="430" />
            </Array>
          </mxGeometry>
        </mxCell>
        <mxCell id="06E3xFHW_3glh8oqLaG1-57" style="edgeStyle=orthogonalEdgeStyle;rounded=0;orthogonalLoop=1;jettySize=auto;html=1;exitX=0.005;exitY=0.63;exitDx=0;exitDy=0;exitPerimeter=0;entryX=1;entryY=0.5;entryDx=0;entryDy=0;" edge="1" parent="06E3xFHW_3glh8oqLaG1-7" source="06E3xFHW_3glh8oqLaG1-36" target="06E3xFHW_3glh8oqLaG1-46">
          <mxGeometry relative="1" as="geometry" />
        </mxCell>
        <mxCell id="06E3xFHW_3glh8oqLaG1-58" style="edgeStyle=orthogonalEdgeStyle;rounded=0;orthogonalLoop=1;jettySize=auto;html=1;exitX=0.005;exitY=0.63;exitDx=0;exitDy=0;exitPerimeter=0;entryX=0.833;entryY=1.034;entryDx=0;entryDy=0;entryPerimeter=0;" edge="1" parent="06E3xFHW_3glh8oqLaG1-7" source="06E3xFHW_3glh8oqLaG1-37" target="06E3xFHW_3glh8oqLaG1-46">
          <mxGeometry relative="1" as="geometry" />
        </mxCell>
        <mxCell id="06E3xFHW_3glh8oqLaG1-63" style="edgeStyle=orthogonalEdgeStyle;rounded=0;orthogonalLoop=1;jettySize=auto;html=1;exitX=0.5;exitY=1;exitDx=0;exitDy=0;entryX=0.011;entryY=0.577;entryDx=0;entryDy=0;entryPerimeter=0;" edge="1" parent="06E3xFHW_3glh8oqLaG1-7" source="06E3xFHW_3glh8oqLaG1-49" target="06E3xFHW_3glh8oqLaG1-43">
          <mxGeometry relative="1" as="geometry" />
        </mxCell>
        <mxCell id="06E3xFHW_3glh8oqLaG1-70" style="edgeStyle=orthogonalEdgeStyle;rounded=0;orthogonalLoop=1;jettySize=auto;html=1;exitX=0.005;exitY=0.63;exitDx=0;exitDy=0;exitPerimeter=0;entryX=0.583;entryY=-0.006;entryDx=0;entryDy=0;entryPerimeter=0;" edge="1" parent="06E3xFHW_3glh8oqLaG1-7" source="06E3xFHW_3glh8oqLaG1-38" target="06E3xFHW_3glh8oqLaG1-49">
          <mxGeometry relative="1" as="geometry" />
        </mxCell>
        <mxCell id="06E3xFHW_3glh8oqLaG1-78" style="edgeStyle=orthogonalEdgeStyle;rounded=0;orthogonalLoop=1;jettySize=auto;html=1;exitX=1;exitY=0.5;exitDx=0;exitDy=0;entryX=1;entryY=0;entryDx=0;entryDy=27.5;entryPerimeter=0;" edge="1" parent="06E3xFHW_3glh8oqLaG1-7" source="06E3xFHW_3glh8oqLaG1-35" target="06E3xFHW_3glh8oqLaG1-8">
          <mxGeometry relative="1" as="geometry">
            <Array as="points">
              <mxPoint x="640" y="132" />
              <mxPoint x="640" y="358" />
              <mxPoint x="470" y="358" />
            </Array>
          </mxGeometry>
        </mxCell>
        <mxCell id="06E3xFHW_3glh8oqLaG1-79" style="edgeStyle=orthogonalEdgeStyle;rounded=0;orthogonalLoop=1;jettySize=auto;html=1;exitX=1;exitY=0.5;exitDx=0;exitDy=0;entryX=1;entryY=0.625;entryDx=0;entryDy=0;entryPerimeter=0;" edge="1" parent="06E3xFHW_3glh8oqLaG1-7" source="06E3xFHW_3glh8oqLaG1-40" target="06E3xFHW_3glh8oqLaG1-8">
          <mxGeometry relative="1" as="geometry">
            <Array as="points">
              <mxPoint x="660" y="205" />
              <mxPoint x="660" y="380" />
            </Array>
          </mxGeometry>
        </mxCell>
        <mxCell id="06E3xFHW_3glh8oqLaG1-80" style="edgeStyle=orthogonalEdgeStyle;rounded=0;orthogonalLoop=1;jettySize=auto;html=1;exitX=1;exitY=0.75;exitDx=0;exitDy=0;entryX=1;entryY=0.5;entryDx=0;entryDy=0;entryPerimeter=0;" edge="1" parent="06E3xFHW_3glh8oqLaG1-7" source="06E3xFHW_3glh8oqLaG1-40" target="06E3xFHW_3glh8oqLaG1-43">
          <mxGeometry relative="1" as="geometry">
            <Array as="points">
              <mxPoint x="740" y="212" />
              <mxPoint x="740" y="510" />
            </Array>
          </mxGeometry>
        </mxCell>
        <mxCell id="06E3xFHW_3glh8oqLaG1-81" style="edgeStyle=orthogonalEdgeStyle;rounded=0;orthogonalLoop=1;jettySize=auto;html=1;exitX=1;exitY=0.75;exitDx=0;exitDy=0;entryX=1;entryY=0;entryDx=0;entryDy=52.5;entryPerimeter=0;" edge="1" parent="06E3xFHW_3glh8oqLaG1-7" source="06E3xFHW_3glh8oqLaG1-42" target="06E3xFHW_3glh8oqLaG1-43">
          <mxGeometry relative="1" as="geometry">
            <Array as="points">
              <mxPoint x="750" y="247" />
              <mxPoint x="750" y="523" />
            </Array>
          </mxGeometry>
        </mxCell>
        <mxCell id="06E3xFHW_3glh8oqLaG1-82" style="edgeStyle=orthogonalEdgeStyle;rounded=0;orthogonalLoop=1;jettySize=auto;html=1;exitX=1;exitY=0.25;exitDx=0;exitDy=0;entryX=1;entryY=0.5;entryDx=0;entryDy=0;entryPerimeter=0;" edge="1" parent="06E3xFHW_3glh8oqLaG1-7" source="06E3xFHW_3glh8oqLaG1-41" target="06E3xFHW_3glh8oqLaG1-8">
          <mxGeometry relative="1" as="geometry">
            <Array as="points">
              <mxPoint x="650" y="162" />
              <mxPoint x="650" y="370" />
            </Array>
          </mxGeometry>
        </mxCell>
        <mxCell id="06E3xFHW_3glh8oqLaG1-84" style="edgeStyle=orthogonalEdgeStyle;rounded=0;orthogonalLoop=1;jettySize=auto;html=1;exitX=1;exitY=0.25;exitDx=0;exitDy=0;entryX=1;entryY=1;entryDx=0;entryDy=-15;entryPerimeter=0;" edge="1" parent="06E3xFHW_3glh8oqLaG1-7" source="06E3xFHW_3glh8oqLaG1-42" target="06E3xFHW_3glh8oqLaG1-8">
          <mxGeometry relative="1" as="geometry">
            <Array as="points">
              <mxPoint x="670" y="235" />
              <mxPoint x="670" y="395" />
            </Array>
          </mxGeometry>
        </mxCell>
        <mxCell id="06E3xFHW_3glh8oqLaG1-85" style="edgeStyle=orthogonalEdgeStyle;rounded=0;orthogonalLoop=1;jettySize=auto;html=1;exitX=1;exitY=0.5;exitDx=0;exitDy=0;entryX=1;entryY=0;entryDx=0;entryDy=27.5;entryPerimeter=0;" edge="1" parent="06E3xFHW_3glh8oqLaG1-7" source="06E3xFHW_3glh8oqLaG1-41" target="06E3xFHW_3glh8oqLaG1-43">
          <mxGeometry relative="1" as="geometry">
            <Array as="points">
              <mxPoint x="730" y="169" />
              <mxPoint x="730" y="498" />
            </Array>
          </mxGeometry>
        </mxCell>
      </root>
    </mxGraphModel>
  </diagram>
</mxfile>
